<?xml version="1.0" encoding="UTF-8"?>
<svg version="1.1" xmlns="http://www.w3.org/2000/svg" width="900" height="506">
<path d="M0 0 C297 0 594 0 900 0 C900 166.98 900 333.96 900 506 C603 506 306 506 0 506 C0 339.02 0 172.04 0 0 Z " fill="#242A2B" transform="translate(0,0)"/>
<path d="M0 0 C1.35473657 0.00894532 2.70947855 0.0170994 4.06422424 0.02453613 C7.82300495 0.04854994 11.58151094 0.08698184 15.34012604 0.12927246 C17.84023883 0.15694619 20.34036655 0.18184256 22.84051514 0.20605469 C34.68783503 0.32192081 46.53470607 0.46638834 58.3815918 0.61981201 C63.18341308 0.68156745 67.98526241 0.7410624 72.78710938 0.80078125 C82.11721528 0.91713276 91.44728901 1.03587031 100.77734375 1.15625 C101.10734375 1.81625 101.43734375 2.47625 101.77734375 3.15625 C101.77734375 2.49625 101.77734375 1.83625 101.77734375 1.15625 C113.32734375 1.15625 124.87734375 1.15625 136.77734375 1.15625 C137.10734375 1.81625 137.43734375 2.47625 137.77734375 3.15625 C137.77734375 2.49625 137.77734375 1.83625 137.77734375 1.15625 C145.51401094 1.13305183 153.25067451 1.11529682 160.98736858 1.10443783 C164.58005186 1.09922535 168.1727113 1.09215743 171.76538086 1.08081055 C175.23426866 1.06992351 178.70313356 1.06396084 182.17203712 1.06137276 C184.13566977 1.05863336 186.09929323 1.05083056 188.06291199 1.04295349 C189.86421318 1.04284019 189.86421318 1.04284019 191.7019043 1.04272461 C192.75669479 1.040504 193.81148529 1.03828339 194.89823914 1.03599548 C197.77734375 1.15625 197.77734375 1.15625 200.59455872 1.72584534 C201.31487778 1.86787888 202.03519684 2.00991241 202.77734375 2.15625 C203.10734375 1.82625 203.43734375 1.49625 203.77734375 1.15625 C205.23351965 1.05845807 206.69441388 1.02993262 208.15386963 1.02926636 C209.0988179 1.02644653 210.04376617 1.02362671 211.01734924 1.02072144 C212.58512367 1.02375778 212.58512367 1.02375778 214.18457031 1.02685547 C215.27883835 1.02510315 216.37310638 1.02335083 217.50053406 1.02154541 C221.13969481 1.01712279 224.77880745 1.02006713 228.41796875 1.0234375 C230.93804941 1.02276438 233.45813001 1.02179429 235.97821045 1.02053833 C241.27112503 1.01906064 246.56402222 1.02112268 251.85693359 1.02587891 C257.97178718 1.03131037 264.08660736 1.02956714 270.20146012 1.0240525 C276.08275266 1.01896105 281.96403486 1.01950893 287.84532928 1.02243423 C290.34759272 1.02310188 292.849857 1.02228074 295.35211945 1.01995468 C298.85228226 1.0174163 302.35238102 1.02128612 305.85253906 1.02685547 C306.88962509 1.02483124 307.92671112 1.02280701 308.995224 1.02072144 C309.95145157 1.02354126 310.90767914 1.02636108 311.8928833 1.02926636 C313.13397291 1.0298319 313.13397291 1.0298319 314.40013504 1.03040886 C316.94067551 1.16489621 319.28996675 1.63611195 321.77734375 2.15625 C325.31858281 2.34068953 328.85805775 2.47127231 332.40234375 2.58203125 C336.45789174 3.27203768 338.04311042 4.08512006 340.77734375 7.15625 C343.59262261 14.47942936 343.22002362 22.40004791 343.40234375 30.15625 C343.44060027 31.51694998 343.47965623 32.87762774 343.51953125 34.23828125 C343.61331443 37.5441382 343.69901764 40.84999674 343.77734375 44.15625 C344.99421875 43.98222656 346.21109375 43.80820313 347.46484375 43.62890625 C350.67839878 43.22721187 353.55442365 43.14052686 356.77734375 43.59375 C357.54046875 43.69558594 358.30359375 43.79742187 359.08984375 43.90234375 C359.64671875 43.98613281 360.20359375 44.06992188 360.77734375 44.15625 C360.44734375 45.47625 360.11734375 46.79625 359.77734375 48.15625 C360.43734375 48.15625 361.09734375 48.15625 361.77734375 48.15625 C361.77734375 53.43625 361.77734375 58.71625 361.77734375 64.15625 C361.11734375 64.15625 360.45734375 64.15625 359.77734375 64.15625 C359.77734375 64.81625 359.77734375 65.47625 359.77734375 66.15625 C356.71352781 67.68815797 353.50768509 67.25868613 350.15234375 67.21875 C347.69401314 67.19759817 345.23567998 67.17673878 342.77734375 67.15625 C342.84839828 68.00127579 342.91945282 68.84630157 342.99266052 69.7169342 C343.82945074 80.70566686 343.90678713 91.63604243 343.875 102.65234375 C343.87313002 104.5814663 343.87170886 106.51058933 343.87071228 108.43971252 C343.86693272 113.46519328 343.85714257 118.49064416 343.8460083 123.51611328 C343.83569494 128.66503495 343.8311936 133.81396155 343.82617188 138.96289062 C343.81551522 149.02735673 343.79849511 159.09180086 343.77734375 169.15625 C344.76476562 169.14464844 345.7521875 169.13304687 346.76953125 169.12109375 C348.69152344 169.10755859 348.69152344 169.10755859 350.65234375 169.09375 C351.92851563 169.08214844 353.2046875 169.07054687 354.51953125 169.05859375 C357.77734375 169.15625 357.77734375 169.15625 359.77734375 170.15625 C359.77734375 170.81625 359.77734375 171.47625 359.77734375 172.15625 C360.43734375 172.15625 361.09734375 172.15625 361.77734375 172.15625 C361.77734375 177.43625 361.77734375 182.71625 361.77734375 188.15625 C361.11734375 188.15625 360.45734375 188.15625 359.77734375 188.15625 C359.77734375 188.81625 359.77734375 189.47625 359.77734375 190.15625 C360.43734375 190.48625 361.09734375 190.81625 361.77734375 191.15625 C359.99175685 192.9418369 357.38821043 192.6181161 354.96484375 192.84375 C353.90652344 192.95074219 352.84820313 193.05773437 351.7578125 193.16796875 C348.67186752 193.15583528 347.41092876 192.60722098 344.77734375 191.15625 C344.79829102 192.18508301 344.81923828 193.21391602 344.84082031 194.27392578 C344.91349369 198.10923213 344.95924196 201.94447822 344.99707031 205.78027344 C345.01712384 207.43695325 345.04437404 209.09356282 345.07910156 210.75 C345.12789887 213.13819758 345.15037439 215.52545547 345.16796875 217.9140625 C345.18861389 218.64867706 345.20925903 219.38329163 345.23052979 220.14016724 C345.23275929 225.30779065 344.05903317 228.19673985 340.77734375 232.15625 C334.33766069 236.44937204 324.31898359 235.61623654 316.77734375 235.15625 C313.02734375 234.15625 313.02734375 234.15625 310.77734375 233.15625 C310.77734375 233.81625 310.77734375 234.47625 310.77734375 235.15625 C282.39734375 235.15625 254.01734375 235.15625 224.77734375 235.15625 C224.44734375 234.49625 224.11734375 233.83625 223.77734375 233.15625 C223.77734375 233.81625 223.77734375 234.47625 223.77734375 235.15625 C214.42319324 235.18690476 205.06903633 235.20724587 195.71484375 235.21875 C195.02371616 235.21960602 194.33258858 235.22046204 193.62051773 235.22134399 C170.32627689 235.24683222 147.05904644 234.97444985 123.77734375 234.15625 C123.44734375 233.49625 123.11734375 232.83625 122.77734375 232.15625 C122.44734375 232.81625 122.11734375 233.47625 121.77734375 234.15625 C119.1953125 234.60546875 119.1953125 234.60546875 115.96484375 234.84375 C114.90652344 234.93011719 113.84820312 235.01648438 112.7578125 235.10546875 C110.11864458 235.15043491 108.2905358 234.79408833 105.77734375 234.15625 C104.78734375 234.48625 103.79734375 234.81625 102.77734375 235.15625 C101.26440841 235.24935166 99.74771233 235.28682735 98.23191833 235.28996277 C97.29986069 235.29422775 96.36780304 235.29849274 95.40750122 235.30288696 C93.87632156 235.30220718 93.87632156 235.30220718 92.31420898 235.30151367 C91.23743393 235.30487228 90.16065887 235.3082309 89.05125427 235.31169128 C85.47947037 235.32121536 81.90773332 235.32314548 78.3359375 235.32421875 C75.85311361 235.32743155 73.37028992 235.33079564 70.88746643 235.33430481 C65.67456626 235.34030059 60.46168267 235.34214437 55.2487793 235.34155273 C48.5831988 235.3408879 41.9177414 235.35507523 35.25218105 235.37232494 C30.11934424 235.38347171 24.98653305 235.38547108 19.85368538 235.38494301 C17.39741714 235.38612018 14.94114819 235.39052713 12.48489189 235.39827538 C9.03859975 235.40812419 5.59253643 235.40517728 2.14624023 235.39916992 C0.636315 235.40759918 0.636315 235.40759918 -0.90411377 235.41619873 C-17.23218981 235.34424224 -17.23218981 235.34424224 -22.84765625 230.40625 C-26.40676498 225.51372871 -25.75854584 220.11326798 -25.36669922 214.31738281 C-25.20471288 211.88703856 -25.08879874 209.45657484 -24.9765625 207.0234375 C-24.75734501 202.3988493 -24.49856893 197.77778737 -24.22265625 193.15625 C-29.17265625 193.15625 -34.12265625 193.15625 -39.22265625 193.15625 C-39.22265625 192.49625 -39.22265625 191.83625 -39.22265625 191.15625 C-40.21265625 190.82625 -41.20265625 190.49625 -42.22265625 190.15625 C-42.33049025 187.21777347 -42.40987541 184.28323849 -42.47265625 181.34375 C-42.50617188 180.51037109 -42.5396875 179.67699219 -42.57421875 178.81835938 C-42.59355469 177.61469727 -42.59355469 177.61469727 -42.61328125 176.38671875 C-42.63422852 175.64832764 -42.65517578 174.90993652 -42.67675781 174.14916992 C-42.22265625 172.15625 -42.22265625 172.15625 -38.22265625 169.15625 C-33.93265625 169.15625 -29.64265625 169.15625 -25.22265625 169.15625 C-25.22265625 135.49625 -25.22265625 101.83625 -25.22265625 67.15625 C-29.51265625 67.15625 -33.80265625 67.15625 -38.22265625 67.15625 C-38.88265625 66.82625 -39.54265625 66.49625 -40.22265625 66.15625 C-40.22265625 65.49625 -40.22265625 64.83625 -40.22265625 64.15625 C-40.88265625 64.15625 -41.54265625 64.15625 -42.22265625 64.15625 C-42.24950304 61.51034986 -42.26941982 58.86471904 -42.28515625 56.21875 C-42.29353516 55.46400391 -42.30191406 54.70925781 -42.31054688 53.93164062 C-42.31918066 52.00630687 -42.27489958 50.08089419 -42.22265625 48.15625 C-41.72765625 47.66125 -41.72765625 47.66125 -41.22265625 47.15625 C-41.22265625 46.16625 -41.22265625 45.17625 -41.22265625 44.15625 C-39.30761951 43.93343126 -37.39049119 43.72853924 -35.47265625 43.53125 C-34.4053125 43.41523438 -33.33796875 43.29921875 -32.23828125 43.1796875 C-29.10913531 43.15536771 -27.8865286 43.68358095 -25.22265625 45.15625 C-25.24884033 44.03130127 -25.27502441 42.90635254 -25.30200195 41.74731445 C-25.3926737 37.56359843 -25.44996662 33.37996879 -25.49731445 29.19555664 C-25.52242015 27.38648868 -25.5565122 25.57752178 -25.59985352 23.76879883 C-25.66068204 21.16462249 -25.68890434 18.56178969 -25.7109375 15.95703125 C-25.73674393 15.15163406 -25.76255035 14.34623688 -25.78913879 13.51643372 C-25.79116616 9.43430905 -25.56879241 7.63998467 -23.12963867 4.23120117 C-15.98727144 -0.86689063 -8.46666496 -0.10047232 0 0 Z " fill="#272C2C" transform="translate(290.22265625,134.84375)"/>
<path d="M0 0 C1.35473657 0.00894532 2.70947855 0.0170994 4.06422424 0.02453613 C7.82300495 0.04854994 11.58151094 0.08698184 15.34012604 0.12927246 C17.84023883 0.15694619 20.34036655 0.18184256 22.84051514 0.20605469 C34.68783503 0.32192081 46.53470607 0.46638834 58.3815918 0.61981201 C63.18341308 0.68156745 67.98526241 0.7410624 72.78710938 0.80078125 C82.11721528 0.91713276 91.44728901 1.03587031 100.77734375 1.15625 C101.10734375 1.81625 101.43734375 2.47625 101.77734375 3.15625 C101.77734375 2.49625 101.77734375 1.83625 101.77734375 1.15625 C113.32734375 1.15625 124.87734375 1.15625 136.77734375 1.15625 C137.10734375 1.81625 137.43734375 2.47625 137.77734375 3.15625 C137.77734375 2.49625 137.77734375 1.83625 137.77734375 1.15625 C145.51401094 1.13305183 153.25067451 1.11529682 160.98736858 1.10443783 C164.58005186 1.09922535 168.1727113 1.09215743 171.76538086 1.08081055 C175.23426866 1.06992351 178.70313356 1.06396084 182.17203712 1.06137276 C184.13566977 1.05863336 186.09929323 1.05083056 188.06291199 1.04295349 C189.86421318 1.04284019 189.86421318 1.04284019 191.7019043 1.04272461 C192.75669479 1.040504 193.81148529 1.03828339 194.89823914 1.03599548 C197.77734375 1.15625 197.77734375 1.15625 200.59455872 1.72584534 C201.31487778 1.86787888 202.03519684 2.00991241 202.77734375 2.15625 C203.10734375 1.82625 203.43734375 1.49625 203.77734375 1.15625 C205.23351965 1.05845807 206.69441388 1.02993262 208.15386963 1.02926636 C209.0988179 1.02644653 210.04376617 1.02362671 211.01734924 1.02072144 C212.58512367 1.02375778 212.58512367 1.02375778 214.18457031 1.02685547 C215.27883835 1.02510315 216.37310638 1.02335083 217.50053406 1.02154541 C221.13969481 1.01712279 224.77880745 1.02006713 228.41796875 1.0234375 C230.93804941 1.02276438 233.45813001 1.02179429 235.97821045 1.02053833 C241.27112503 1.01906064 246.56402222 1.02112268 251.85693359 1.02587891 C257.97178718 1.03131037 264.08660736 1.02956714 270.20146012 1.0240525 C276.08275266 1.01896105 281.96403486 1.01950893 287.84532928 1.02243423 C290.34759272 1.02310188 292.849857 1.02228074 295.35211945 1.01995468 C298.85228226 1.0174163 302.35238102 1.02128612 305.85253906 1.02685547 C306.88962509 1.02483124 307.92671112 1.02280701 308.995224 1.02072144 C309.95145157 1.02354126 310.90767914 1.02636108 311.8928833 1.02926636 C313.13397291 1.0298319 313.13397291 1.0298319 314.40013504 1.03040886 C316.94067551 1.16489621 319.28996675 1.63611195 321.77734375 2.15625 C325.31858281 2.34068953 328.85805775 2.47127231 332.40234375 2.58203125 C336.45789174 3.27203768 338.04311042 4.08512006 340.77734375 7.15625 C343.59262261 14.47942936 343.22002362 22.40004791 343.40234375 30.15625 C343.44060027 31.51694998 343.47965623 32.87762774 343.51953125 34.23828125 C343.61331443 37.5441382 343.69901764 40.84999674 343.77734375 44.15625 C344.99421875 43.98222656 346.21109375 43.80820313 347.46484375 43.62890625 C350.67839878 43.22721187 353.55442365 43.14052686 356.77734375 43.59375 C357.54046875 43.69558594 358.30359375 43.79742187 359.08984375 43.90234375 C359.64671875 43.98613281 360.20359375 44.06992188 360.77734375 44.15625 C360.44734375 45.47625 360.11734375 46.79625 359.77734375 48.15625 C360.43734375 48.15625 361.09734375 48.15625 361.77734375 48.15625 C361.77734375 53.43625 361.77734375 58.71625 361.77734375 64.15625 C361.11734375 64.15625 360.45734375 64.15625 359.77734375 64.15625 C359.77734375 64.81625 359.77734375 65.47625 359.77734375 66.15625 C356.71352781 67.68815797 353.50768509 67.25868613 350.15234375 67.21875 C347.69401314 67.19759817 345.23567998 67.17673878 342.77734375 67.15625 C342.84839828 68.00127579 342.91945282 68.84630157 342.99266052 69.7169342 C343.82945074 80.70566686 343.90678713 91.63604243 343.875 102.65234375 C343.87313002 104.5814663 343.87170886 106.51058933 343.87071228 108.43971252 C343.86693272 113.46519328 343.85714257 118.49064416 343.8460083 123.51611328 C343.83569494 128.66503495 343.8311936 133.81396155 343.82617188 138.96289062 C343.81551522 149.02735673 343.79849511 159.09180086 343.77734375 169.15625 C344.76476562 169.14464844 345.7521875 169.13304687 346.76953125 169.12109375 C348.69152344 169.10755859 348.69152344 169.10755859 350.65234375 169.09375 C351.92851563 169.08214844 353.2046875 169.07054687 354.51953125 169.05859375 C357.77734375 169.15625 357.77734375 169.15625 359.77734375 170.15625 C359.77734375 170.81625 359.77734375 171.47625 359.77734375 172.15625 C360.43734375 172.15625 361.09734375 172.15625 361.77734375 172.15625 C361.77734375 177.43625 361.77734375 182.71625 361.77734375 188.15625 C361.11734375 188.15625 360.45734375 188.15625 359.77734375 188.15625 C359.77734375 188.81625 359.77734375 189.47625 359.77734375 190.15625 C360.43734375 190.48625 361.09734375 190.81625 361.77734375 191.15625 C359.99175685 192.9418369 357.38821043 192.6181161 354.96484375 192.84375 C353.90652344 192.95074219 352.84820313 193.05773437 351.7578125 193.16796875 C348.67186752 193.15583528 347.41092876 192.60722098 344.77734375 191.15625 C344.79829102 192.18508301 344.81923828 193.21391602 344.84082031 194.27392578 C344.91349369 198.10923213 344.95924196 201.94447822 344.99707031 205.78027344 C345.01712384 207.43695325 345.04437404 209.09356282 345.07910156 210.75 C345.12789887 213.13819758 345.15037439 215.52545547 345.16796875 217.9140625 C345.18861389 218.64867706 345.20925903 219.38329163 345.23052979 220.14016724 C345.23275929 225.30779065 344.05903317 228.19673985 340.77734375 232.15625 C334.33766069 236.44937204 324.31898359 235.61623654 316.77734375 235.15625 C313.02734375 234.15625 313.02734375 234.15625 310.77734375 233.15625 C310.77734375 233.81625 310.77734375 234.47625 310.77734375 235.15625 C282.39734375 235.15625 254.01734375 235.15625 224.77734375 235.15625 C224.44734375 234.49625 224.11734375 233.83625 223.77734375 233.15625 C223.77734375 233.81625 223.77734375 234.47625 223.77734375 235.15625 C214.42319324 235.18690476 205.06903633 235.20724587 195.71484375 235.21875 C195.02371616 235.21960602 194.33258858 235.22046204 193.62051773 235.22134399 C170.32627689 235.24683222 147.05904644 234.97444985 123.77734375 234.15625 C123.44734375 233.49625 123.11734375 232.83625 122.77734375 232.15625 C122.44734375 232.81625 122.11734375 233.47625 121.77734375 234.15625 C119.1953125 234.60546875 119.1953125 234.60546875 115.96484375 234.84375 C114.90652344 234.93011719 113.84820312 235.01648438 112.7578125 235.10546875 C110.11864458 235.15043491 108.2905358 234.79408833 105.77734375 234.15625 C104.78734375 234.48625 103.79734375 234.81625 102.77734375 235.15625 C101.26440841 235.24935166 99.74771233 235.28682735 98.23191833 235.28996277 C97.29986069 235.29422775 96.36780304 235.29849274 95.40750122 235.30288696 C93.87632156 235.30220718 93.87632156 235.30220718 92.31420898 235.30151367 C91.23743393 235.30487228 90.16065887 235.3082309 89.05125427 235.31169128 C85.47947037 235.32121536 81.90773332 235.32314548 78.3359375 235.32421875 C75.85311361 235.32743155 73.37028992 235.33079564 70.88746643 235.33430481 C65.67456626 235.34030059 60.46168267 235.34214437 55.2487793 235.34155273 C48.5831988 235.3408879 41.9177414 235.35507523 35.25218105 235.37232494 C30.11934424 235.38347171 24.98653305 235.38547108 19.85368538 235.38494301 C17.39741714 235.38612018 14.94114819 235.39052713 12.48489189 235.39827538 C9.03859975 235.40812419 5.59253643 235.40517728 2.14624023 235.39916992 C0.636315 235.40759918 0.636315 235.40759918 -0.90411377 235.41619873 C-17.23218981 235.34424224 -17.23218981 235.34424224 -22.84765625 230.40625 C-26.40676498 225.51372871 -25.75854584 220.11326798 -25.36669922 214.31738281 C-25.20471288 211.88703856 -25.08879874 209.45657484 -24.9765625 207.0234375 C-24.75734501 202.3988493 -24.49856893 197.77778737 -24.22265625 193.15625 C-29.17265625 193.15625 -34.12265625 193.15625 -39.22265625 193.15625 C-39.22265625 192.49625 -39.22265625 191.83625 -39.22265625 191.15625 C-40.21265625 190.82625 -41.20265625 190.49625 -42.22265625 190.15625 C-42.33049025 187.21777347 -42.40987541 184.28323849 -42.47265625 181.34375 C-42.50617188 180.51037109 -42.5396875 179.67699219 -42.57421875 178.81835938 C-42.59355469 177.61469727 -42.59355469 177.61469727 -42.61328125 176.38671875 C-42.63422852 175.64832764 -42.65517578 174.90993652 -42.67675781 174.14916992 C-42.22265625 172.15625 -42.22265625 172.15625 -38.22265625 169.15625 C-33.93265625 169.15625 -29.64265625 169.15625 -25.22265625 169.15625 C-25.22265625 135.49625 -25.22265625 101.83625 -25.22265625 67.15625 C-29.51265625 67.15625 -33.80265625 67.15625 -38.22265625 67.15625 C-38.88265625 66.82625 -39.54265625 66.49625 -40.22265625 66.15625 C-40.22265625 65.49625 -40.22265625 64.83625 -40.22265625 64.15625 C-40.88265625 64.15625 -41.54265625 64.15625 -42.22265625 64.15625 C-42.24950304 61.51034986 -42.26941982 58.86471904 -42.28515625 56.21875 C-42.29353516 55.46400391 -42.30191406 54.70925781 -42.31054688 53.93164062 C-42.31918066 52.00630687 -42.27489958 50.08089419 -42.22265625 48.15625 C-41.72765625 47.66125 -41.72765625 47.66125 -41.22265625 47.15625 C-41.22265625 46.16625 -41.22265625 45.17625 -41.22265625 44.15625 C-39.30761951 43.93343126 -37.39049119 43.72853924 -35.47265625 43.53125 C-34.4053125 43.41523438 -33.33796875 43.29921875 -32.23828125 43.1796875 C-29.10913531 43.15536771 -27.8865286 43.68358095 -25.22265625 45.15625 C-25.24884033 44.03130127 -25.27502441 42.90635254 -25.30200195 41.74731445 C-25.3926737 37.56359843 -25.44996662 33.37996879 -25.49731445 29.19555664 C-25.52242015 27.38648868 -25.5565122 25.57752178 -25.59985352 23.76879883 C-25.66068204 21.16462249 -25.68890434 18.56178969 -25.7109375 15.95703125 C-25.73674393 15.15163406 -25.76255035 14.34623688 -25.78913879 13.51643372 C-25.79116616 9.43430905 -25.56879241 7.63998467 -23.12963867 4.23120117 C-15.98727144 -0.86689063 -8.46666496 -0.10047232 0 0 Z M308.77734375 23.15625 C308.77734375 23.81625 308.77734375 24.47625 308.77734375 25.15625 C308.06359819 24.99378786 307.34985263 24.83132572 306.61447841 24.66394049 C303.79807499 24.15995975 301.24130022 24.03203225 298.3831892 24.03320217 C296.76937777 24.0302156 296.76937777 24.0302156 295.12296408 24.02716869 C293.35886513 24.03153795 293.35886513 24.03153795 291.55912781 24.03599548 C290.30528866 24.03514106 289.05144951 24.03428663 287.75961524 24.03340632 C284.28201885 24.0311706 280.80445326 24.03517004 277.32686079 24.04018438 C273.57572072 24.04450192 269.8245824 24.04304153 266.07344055 24.0422821 C259.5752032 24.0417577 253.0769759 24.04489582 246.57874107 24.05051994 C237.18337899 24.0586462 227.78802176 24.06125132 218.39265654 24.06250793 C203.14938221 24.06469668 187.90611323 24.07135197 172.6628418 24.08081055 C157.85522488 24.08998924 143.04760942 24.09706784 128.23999023 24.10131836 C127.32728321 24.10158108 126.41457618 24.10184381 125.47421136 24.10211449 C120.89543873 24.10341953 116.3166661 24.10468324 111.73789346 24.10592639 C73.75103981 24.11629349 35.76419213 24.13390699 -2.22265625 24.15625 C-2.21105469 25.46980469 -2.19945312 26.78335938 -2.1875 28.13671875 C-2.17811797 29.87239441 -2.16901821 31.60807161 -2.16015625 33.34375 C-2.15177734 34.20806641 -2.14339844 35.07238281 -2.13476562 35.96289062 C-2.11852614 40.20139732 -2.32664753 43.9990924 -3.22265625 48.15625 C-2.89265625 48.81625 -2.56265625 49.47625 -2.22265625 50.15625 C-2.1310184 52.06342132 -2.10514594 53.97387229 -2.10913086 55.88323975 C-2.10920135 57.10263748 -2.10927185 58.32203522 -2.10934448 59.5783844 C-2.1144792 60.93734773 -2.11970064 62.29631074 -2.125 63.65527344 C-2.12691855 65.08111011 -2.12838264 66.50694745 -2.12942505 67.93278503 C-2.13259225 71.00973498 -2.13887085 74.08665766 -2.14749146 77.16359711 C-2.16100931 82.04031673 -2.16690828 86.91702723 -2.17163086 91.79376221 C-2.18368861 103.04255215 -2.20563715 114.29131879 -2.2278595 125.54009247 C-2.24809021 135.81756162 -2.26616765 146.09502236 -2.27607441 156.37250733 C-2.28102314 161.20740318 -2.29083424 166.04225611 -2.30450439 170.8771348 C-2.31203992 173.90752804 -2.3152949 176.93791566 -2.31747055 179.96831703 C-2.31932059 181.35891633 -2.32287628 182.74951475 -2.32840347 184.14010429 C-2.36324437 193.20282335 -1.99004406 202.12745192 -1.22265625 211.15625 C1.48530101 211.35226027 4.1933418 211.53829839 6.90234375 211.71875 C7.66289062 211.77482422 8.4234375 211.83089844 9.20703125 211.88867188 C13.57727503 212.17123074 17.45805044 212.08772699 21.77734375 211.15625 C21.77734375 211.81625 21.77734375 212.47625 21.77734375 213.15625 C22.43734375 213.15625 23.09734375 213.15625 23.77734375 213.15625 C23.77734375 212.49625 23.77734375 211.83625 23.77734375 211.15625 C24.6372567 211.40018494 24.6372567 211.40018494 25.51454163 211.64904785 C27.76278521 212.15298674 29.68274549 212.2779835 31.98217773 212.27148438 C32.85302505 212.27088013 33.72387238 212.27027588 34.62110901 212.26965332 C36.08869911 212.25992493 36.08869911 212.25992493 37.5859375 212.25 C38.65267197 212.24641479 39.71940643 212.24282959 40.81846619 212.23913574 C59.43885141 212.15340982 78.05888143 211.90834762 96.67810059 211.69268799 C102.00218558 211.63132976 107.32628886 211.57160113 112.65039062 211.51171875 C123.02605976 211.39478744 133.401708 211.27610431 143.77734375 211.15625 C143.44734375 212.14625 143.11734375 213.13625 142.77734375 214.15625 C143.76734375 213.82625 144.75734375 213.49625 145.77734375 213.15625 C145.44734375 212.49625 145.11734375 211.83625 144.77734375 211.15625 C202.85734375 211.48625 260.93734375 211.81625 320.77734375 212.15625 C320.79796875 190.95375 320.81859375 169.75125 320.83984375 147.90625 C320.85349976 138.01350098 320.85349976 138.01350098 320.86743164 127.92089844 C320.88791967 102.73060354 320.90727072 77.54476116 320.3359375 52.359375 C320.31640581 51.4632122 320.29687412 50.56704941 320.27675056 49.64373016 C320.22059821 47.16497593 320.1578538 44.68650937 320.09155273 42.20800781 C320.06677384 41.16659763 320.06677384 41.16659763 320.04149437 40.10414886 C319.8908284 35.08201396 319.39120739 30.13824333 318.77734375 25.15625 C316.13734375 25.15625 313.49734375 25.15625 310.77734375 25.15625 C310.77734375 24.49625 310.77734375 23.83625 310.77734375 23.15625 C310.11734375 23.15625 309.45734375 23.15625 308.77734375 23.15625 Z " fill="#F9FAFA" transform="translate(290.22265625,134.84375)"/>
<path d="M0 0 C6.886672 -0.10148186 13.77315092 -0.1714999 20.66040039 -0.21972656 C23.00292161 -0.23983265 25.3453927 -0.26712166 27.68774414 -0.30175781 C31.05627823 -0.35031841 34.42414831 -0.37297922 37.79296875 -0.390625 C38.83897751 -0.41127014 39.88498627 -0.43191528 40.96269226 -0.45318604 C45.13250922 -0.45447071 48.28806479 -0.29386682 52.16552734 1.30664062 C55.17934114 5.73150007 54.65206303 10.26021583 54.55859375 15.484375 C54.55509666 17.17871674 54.55509666 17.17871674 54.55152893 18.9072876 C54.54178548 21.29796898 54.51998498 23.68862705 54.48706055 26.07910156 C54.43787321 29.72235664 54.42559182 33.36425613 54.41992188 37.0078125 C54.40582633 39.33334757 54.38961852 41.65887099 54.37109375 43.984375 C54.36573105 45.06797302 54.36036835 46.15157104 54.35484314 47.26800537 C54.26289288 53.17795976 53.70356582 58.33365309 52 64 C50.02 64.495 50.02 64.495 48 65 C48.49615814 65.4867218 48.99231628 65.9734436 49.50350952 66.47491455 C55.72454811 73.33487589 55.97819517 79.04136535 55.7890625 88.046875 C55.78360757 89.38966066 55.78083842 90.73245963 55.78060913 92.07525635 C55.77292525 94.8729475 55.7421929 97.66904705 55.69287109 100.46630859 C55.6303673 104.04301651 55.61202184 107.61821346 55.60907936 111.1954155 C55.60437074 113.9614118 55.58356615 116.72709036 55.55720139 119.49295807 C55.53937637 121.44991556 55.52933822 123.406939 55.5194397 125.36395264 C55.49707245 126.55579163 55.4747052 127.74763062 55.45166016 128.97558594 C55.42998276 130.54370026 55.42998276 130.54370026 55.40786743 132.14349365 C54.93573538 135.45007832 53.9840078 137.32982799 52 140 C46.24743152 143.40685194 41.03894244 143.40019548 34.47265625 143.29296875 C32.98928017 143.28660149 32.98928017 143.28660149 31.47593689 143.28010559 C28.33783991 143.26340129 25.20040072 143.22576415 22.0625 143.1875 C19.92644161 143.17244251 17.79037309 143.15875597 15.65429688 143.14648438 C10.43597598 143.11352493 5.218035 143.06340838 0 143 C-0.00808685 142.20708557 -0.01617371 141.41417114 -0.02450562 140.597229 C-0.10246606 133.12252853 -0.18976099 125.64802285 -0.28752708 118.17355728 C-0.33746005 114.33091081 -0.38379023 110.48829143 -0.421875 106.64550781 C-0.4587659 102.93658312 -0.50513596 99.22788671 -0.55806351 95.51915741 C-0.57658729 94.10463213 -0.59170272 92.69005795 -0.60334396 91.27545929 C-0.62024013 89.29324238 -0.65040923 87.31115208 -0.68115234 85.32910156 C-0.70113785 83.63699554 -0.70113785 83.63699554 -0.7215271 81.91070557 C-0.99740424 79.02713184 -1.646633 77.5012836 -3 75 C-3.13958857 72.37573495 -3.18931369 69.86707253 -3.125 67.25 C-3.11597656 66.55261719 -3.10695313 65.85523438 -3.09765625 65.13671875 C-3.07419888 63.42433042 -3.03833104 61.71211996 -3 60 C-2.34 60 -1.68 60 -1 60 C-1.495 58.515 -1.495 58.515 -2 57 C-1.01 57 -0.02 57 1 57 C0.83734146 56.4497113 0.67468292 55.89942261 0.50709534 55.3324585 C-0.06225079 52.71366846 -0.11990693 50.36091044 -0.11352539 47.68066406 C-0.11341209 46.08946747 -0.11341209 46.08946747 -0.11329651 44.46612549 C-0.10813522 43.32746033 -0.10297394 42.18879517 -0.09765625 41.015625 C-0.09553383 39.25952911 -0.09553383 39.25952911 -0.09336853 37.46795654 C-0.0877709 33.72861171 -0.0752188 29.98932674 -0.0625 26.25 C-0.0574847 23.71484461 -0.05292184 21.17968829 -0.04882812 18.64453125 C-0.03780224 12.42966707 -0.02106644 6.21483781 0 0 Z " fill="#F9FAFA" transform="translate(462,181)"/>
<path d="M0 0 C1.31355469 -0.02578125 2.62710937 -0.0515625 3.98046875 -0.078125 C8.01492696 0.2673332 10.28885002 1.36149563 13.8125 3.25 C13.80916908 4.45910789 13.80916908 4.45910789 13.80577087 5.69264221 C13.78558626 13.35508031 13.77043435 21.0175052 13.76068783 28.67996311 C13.75550834 32.61762709 13.74850241 36.55526877 13.73706055 40.49291992 C13.72605368 44.30549775 13.7201862 48.11805438 13.71762276 51.9306469 C13.7158001 53.37240876 13.7122426 54.81416969 13.70676994 56.25592232 C13.67530185 64.9040158 13.93140598 73.47593113 14.58078003 82.09796143 C15.57345442 95.60110474 14.36578756 108.83902614 12.8125 122.25 C15.86163228 123.26111093 15.86163228 123.26111093 18.8125 122.25 C20.81210012 122.210008 22.81297242 122.20653201 24.8125 122.25 C24.3175 123.735 24.3175 123.735 23.8125 125.25 C25.86125239 124.64203399 25.86125239 124.64203399 27.8125 123.25 C28.5353298 120.78282753 28.5353298 120.78282753 28.60546875 117.875 C28.7147168 116.27398437 28.7147168 116.27398437 28.82617188 114.640625 C28.88353516 113.52171875 28.94089844 112.4028125 29 111.25 C29.136125 109.04146724 29.27529437 106.83311934 29.41796875 104.625 C29.47106201 103.64273438 29.52415527 102.66046875 29.57885742 101.6484375 C29.8125 99.25 29.8125 99.25 30.8125 97.25 C30.1525 97.25 29.4925 97.25 28.8125 97.25 C28.76623458 85.02847967 28.73066035 72.80698004 28.70887566 60.58539009 C28.69842205 54.91089925 28.68423417 49.23646816 28.66162109 43.56201172 C28.63994884 38.08962285 28.62794326 32.61729159 28.62274551 27.14486313 C28.61903963 25.05319181 28.61180337 22.96152377 28.60103989 20.86987686 C28.58659959 17.94850001 28.58451892 15.02736361 28.58544922 12.10595703 C28.57825867 11.23417816 28.57106812 10.36239929 28.56365967 9.46420288 C28.58439568 3.47810432 28.58439568 3.47810432 30.8125 1.25 C33.56839777 1.26747927 36.20036676 1.38863271 38.9375 1.625 C40.06865234 1.71007812 40.06865234 1.71007812 41.22265625 1.796875 C43.08668096 1.9384465 44.94971137 2.09299959 46.8125 2.25 C46.8125 2.91 46.8125 3.57 46.8125 4.25 C47.4725 4.25 48.1325 4.25 48.8125 4.25 C48.8125 3.59 48.8125 2.93 48.8125 2.25 C49.4725 2.25 50.1325 2.25 50.8125 2.25 C51.94431976 10.70535936 52.16020538 19.16993106 52.375 27.6875 C52.39584656 28.48600372 52.41669312 29.28450745 52.43817139 30.10720825 C53.10749994 56.3223614 53.08286443 82.55043202 52.49310303 108.76712036 C52.45658414 110.39782305 52.42253009 112.02858317 52.39117432 113.65939331 C51.95408369 135.41758286 51.95408369 135.41758286 47.875 140.8125 C43.58842716 143.80011138 39.04279252 143.49874095 34.015625 143.63671875 C32.71513214 143.67500542 32.71513214 143.67500542 31.3883667 143.71406555 C29.55260024 143.76606732 27.71675933 143.81549506 25.88085938 143.86254883 C23.08678486 143.93685417 20.29355752 144.02764964 17.5 144.11914062 C15.71356908 144.16768603 13.92711098 144.21524367 12.140625 144.26171875 C10.89650848 144.30530769 10.89650848 144.30530769 9.6272583 144.34977722 C3.35818738 144.48413271 -1.84116906 143.81422063 -7.1875 140.25 C-8.86888517 136.27801186 -9.43627048 132.87854875 -9.41796875 128.58984375 C-9.41667969 127.43226563 -9.41539062 126.2746875 -9.4140625 125.08203125 C-9.40117187 123.79683594 -9.38828125 122.51164062 -9.375 121.1875 C-9.36801246 119.807294 -9.3615223 118.42708541 -9.35546875 117.046875 C-9.20833539 92.18539583 -8.67519314 67.32147484 -8.22546387 42.46398926 C-8.18649767 40.19154582 -8.19329989 37.93940392 -8.20336914 35.6640625 C-8.22136488 31.44076283 -8.23291621 27.21746725 -8.24243164 22.99414062 C-8.24747723 21.16470773 -8.25431319 19.33527889 -8.26293945 17.50585938 C-8.27501364 14.87889612 -8.28072942 12.25198584 -8.28515625 9.625 C-8.29031754 8.80209473 -8.29547882 7.97918945 -8.30079651 7.13134766 C-8.30099203 5.17053473 -8.2495453 3.20983105 -8.1875 1.25 C-6.23283483 -0.70466517 -2.65864994 0.02016038 0 0 Z " fill="#F8F9F9" transform="translate(395.1875,180.75)"/>
<path d="M0 0 C0 0.66 0 1.32 0 2 C1.32 2.66 2.64 3.32 4 4 C4.02465622 8.25414623 4.04283899 12.50825498 4.05493164 16.76245117 C4.05997101 18.21070073 4.06680253 19.65894517 4.07543945 21.10717773 C4.08752247 23.18474588 4.09323211 25.26224697 4.09765625 27.33984375 C4.10289307 28.59144287 4.10812988 29.84304199 4.11352539 31.13256836 C4 34 4 34 3 35 C0.13732433 35.07325168 -2.700719 35.09238205 -5.5625 35.0625 C-6.36880859 35.05798828 -7.17511719 35.05347656 -8.00585938 35.04882812 C-10.00393756 35.03700518 -12.00197783 35.01906914 -14 35 C-15.25168929 29.6088658 -15.06648892 24.51858026 -15 19 C-19.95 19 -24.9 19 -30 19 C-29.67 20.65 -29.34 22.3 -29 24 C-28.91579696 25.4215741 -28.87377459 26.84624397 -28.87301636 28.27030945 C-28.87019653 29.09046539 -28.86737671 29.91062134 -28.86447144 30.75563049 C-28.86649567 31.64153366 -28.8685199 32.52743683 -28.87060547 33.44018555 C-28.86885315 34.38379944 -28.86710083 35.32741333 -28.86529541 36.29962158 C-28.86090151 39.41200612 -28.86380553 42.52433365 -28.8671875 45.63671875 C-28.86651392 47.7995454 -28.86554345 49.96237197 -28.86428833 52.12519836 C-28.86281484 56.65354128 -28.86495538 61.18186446 -28.86962891 65.71020508 C-28.87533621 71.52452248 -28.87203865 77.33879382 -28.86605644 83.15310955 C-28.86245016 87.61650441 -28.86358955 92.07988828 -28.86618423 96.54328346 C-28.86685279 98.68797626 -28.86602757 100.83267004 -28.86370468 102.97736168 C-28.86117598 105.96760091 -28.86502141 108.95776448 -28.87060547 111.94799805 C-28.86858124 112.83997391 -28.86655701 113.73194977 -28.86447144 114.6509552 C-28.88573403 120.77146805 -28.88573403 120.77146805 -30 123 C-27.91846065 123.13536022 -25.83438794 123.23215465 -23.75 123.3125 C-22.58984375 123.37050781 -21.4296875 123.42851562 -20.234375 123.48828125 C-16.85082134 123.29020366 -16.85082134 123.29020366 -14.578125 120.73046875 C-12.66639906 117.94842401 -12.66639906 117.94842401 -13 114 C-13.99 113.505 -13.99 113.505 -15 113 C-15 114.65 -15 116.3 -15 118 C-15.33 118 -15.66 118 -16 118 C-16.33 104.47 -16.66 90.94 -17 77 C-18.65 76.67 -20.3 76.34 -22 76 C-22.05479286 74.1461748 -22.09314594 72.2918612 -22.125 70.4375 C-22.14820313 69.40496094 -22.17140625 68.37242187 -22.1953125 67.30859375 C-22 64 -22 64 -20 57 C-12.08 57 -4.16 57 4 57 C5.17616812 60.52850435 5.13428106 63.32919269 5.14526367 67.05419922 C5.14862228 67.76837006 5.1519809 68.48254089 5.15544128 69.21835327 C5.16494403 71.58048235 5.1668941 73.94254049 5.16796875 76.3046875 C5.17118197 77.94752024 5.17454609 79.59035268 5.17805481 81.23318481 C5.1840445 84.67808699 5.18589489 88.12296408 5.18530273 91.56787109 C5.18520116 95.97850514 5.19884934 100.38897803 5.21607494 104.7995739 C5.22720316 108.19337704 5.22922168 111.58714133 5.22869301 114.98096085 C5.22987204 116.60682861 5.23428951 118.23269742 5.24202538 119.85854721 C5.25184122 122.13481622 5.24894097 124.41073689 5.24291992 126.68701172 C5.24434494 127.9814621 5.24576996 129.27591248 5.24723816 130.60958862 C4.95745407 134.58343828 4.12333849 137.48349304 1.75 140.6875 C-2.99563115 144.24672336 -8.54450447 144.30783055 -14.25 144.30078125 C-15.02633789 144.30506638 -15.80267578 144.3093515 -16.60253906 144.31376648 C-18.23631825 144.3194838 -19.87012287 144.32002929 -21.50390625 144.31567383 C-23.99263128 144.31250937 -26.48017122 144.33601971 -28.96875 144.36132812 C-30.56249851 144.36360108 -32.1562502 144.36430463 -33.75 144.36328125 C-34.85649902 144.37709587 -34.85649902 144.37709587 -35.98535156 144.39118958 C-40.73391528 144.34899149 -43.95816827 143.48701808 -48 141 C-51.74293454 136.99893204 -52.12126926 133.14370702 -52.15390015 127.82060242 C-52.16250061 126.77345062 -52.17110107 125.72629883 -52.17996216 124.64741516 C-52.18422211 123.50395126 -52.18848206 122.36048737 -52.19287109 121.18237305 C-52.20104858 119.97383667 -52.20922607 118.76530029 -52.21765137 117.5201416 C-52.24248209 113.51733732 -52.25916979 109.51457071 -52.2734375 105.51171875 C-52.27879972 104.13124905 -52.28417723 102.75077941 -52.28956985 101.37030983 C-52.31118632 95.62695947 -52.32992224 89.88361184 -52.34119225 84.14023113 C-52.35742936 75.9210857 -52.39061474 67.70241306 -52.44759309 59.48344582 C-52.48633318 53.69731639 -52.50582958 47.91131321 -52.51111281 42.12505752 C-52.51476019 38.6722696 -52.52671505 35.21998677 -52.55921555 31.76733971 C-52.59497622 27.91335653 -52.59091494 24.05996408 -52.58349609 20.20581055 C-52.59990143 19.06841934 -52.61630676 17.93102814 -52.63320923 16.75917053 C-52.57877273 9.85120574 -51.81358243 6.08341102 -47 1 C-41.79728773 -0.73423742 -36.21244993 -0.39446897 -30.76098633 -0.55761719 C-28.60135281 -0.62380918 -26.44239248 -0.70202278 -24.28320312 -0.78125 C-16.12480598 -1.05278515 -8.1245418 -0.92247098 0 0 Z " fill="#F9FBFA" transform="translate(583,181)"/>
<path d="M0 0 C0.98482361 -0.00960754 1.96964722 -0.01921509 2.98431396 -0.02911377 C4.05715637 -0.03336365 5.12999878 -0.03761353 6.23535156 -0.04199219 C7.88014496 -0.0505423 7.88014496 -0.0505423 9.5581665 -0.05926514 C11.88512197 -0.06873355 14.21209095 -0.07525639 16.5390625 -0.07910156 C20.09691913 -0.08878808 23.65419366 -0.11978687 27.21191406 -0.15136719 C29.46972312 -0.15789879 31.72753633 -0.16314864 33.98535156 -0.16699219 C35.05009705 -0.17933899 36.11484253 -0.19168579 37.21185303 -0.20440674 C46.52656234 -0.17638041 46.52656234 -0.17638041 50.37597656 3.16113281 C51.85728749 6.12375466 51.5196779 8.79554624 51.53710938 12.10180664 C51.54455673 13.17284386 51.54455673 13.17284386 51.55215454 14.26551819 C51.56678634 16.63307655 51.57358034 19.00056787 51.57910156 21.36816406 C51.58485283 23.01242576 51.59061057 24.65668744 51.59637451 26.3009491 C51.60688784 29.75182407 51.61272811 33.20267572 51.61621094 36.65356445 C51.62169191 41.07214298 51.64570988 45.49041277 51.67418289 49.90889454 C51.6928229 53.3069905 51.69801563 56.70501237 51.69954681 60.10315514 C51.70257155 61.73182549 51.71059406 63.36049459 51.72373199 64.98911476 C51.74081898 67.27040573 51.73890596 69.5509461 51.73242188 71.83227539 C51.73789032 73.77847527 51.73789032 73.77847527 51.74346924 75.76399231 C51.34567187 79.4412725 50.66980892 81.28415879 48.37597656 84.16113281 C45.09530469 86.5390395 42.04591452 86.39386808 38.07910156 86.35644531 C36.27119141 86.34677734 36.27119141 86.34677734 34.42675781 86.33691406 C32.54537109 86.31177734 32.54537109 86.31177734 30.62597656 86.28613281 C29.35625 86.27710938 28.08652344 86.26808594 26.77832031 86.25878906 C23.64401563 86.23522286 20.51009115 86.20232114 17.37597656 86.16113281 C17.38041779 86.84351517 17.38485901 87.52589752 17.38943481 88.22895813 C17.43360892 95.31757518 17.46381835 102.40615326 17.48583984 109.49487305 C17.49591062 112.14202461 17.50956793 114.78916502 17.52685547 117.4362793 C17.55105628 121.23651886 17.56244885 125.03661163 17.57128906 128.83691406 C17.58161163 130.02448807 17.5919342 131.21206207 17.60256958 132.43562317 C17.60272064 133.53653793 17.6028717 134.6374527 17.60302734 135.77172852 C17.60746857 136.74213577 17.61190979 137.71254303 17.6164856 138.71235657 C17.37597656 141.16113281 17.37597656 141.16113281 15.37597656 144.16113281 C12.43999702 144.80874659 9.43737262 144.6243043 6.43847656 144.59863281 C5.61412109 144.61861328 4.78976562 144.63859375 3.94042969 144.65917969 C3.14701172 144.65853516 2.35359375 144.65789062 1.53613281 144.65722656 C0.81047119 144.65907959 0.08480957 144.66093262 -0.6628418 144.6628418 C-2.62402344 144.16113281 -2.62402344 144.16113281 -4.36352539 142.60180664 C-6.0774986 139.28307912 -6.01663094 136.25946545 -5.95214844 132.61425781 C-5.94933868 131.51920929 -5.94933868 131.51920929 -5.94647217 130.40203857 C-5.93976118 128.85879952 -5.92586548 127.3155772 -5.90527344 125.77246094 C-5.8743142 123.43310367 -5.86431633 121.0944241 -5.85839844 118.75488281 C-5.84921858 117.24966643 -5.8388397 115.74445679 -5.82714844 114.23925781 C-5.82289856 113.54938782 -5.81864868 112.85951782 -5.81427002 112.14874268 C-5.74592281 107.40240846 -5.42835121 102.83444393 -4.62402344 98.16113281 C-3.63402344 97.66613281 -3.63402344 97.66613281 -2.62402344 97.16113281 C-3.61402344 97.16113281 -4.60402344 97.16113281 -5.62402344 97.16113281 C-5.62402344 93.20113281 -5.62402344 89.24113281 -5.62402344 85.16113281 C-6.28402344 84.83113281 -6.94402344 84.50113281 -7.62402344 84.16113281 C-8.97437563 80.59173052 -8.79169222 76.87053133 -8.81152344 73.09863281 C-8.82570313 71.87015625 -8.83988281 70.64167969 -8.85449219 69.37597656 C-8.62402344 66.16113281 -8.62402344 66.16113281 -6.62402344 63.16113281 C-6.3015008 60.35822918 -6.3015008 60.35822918 -6.32104492 57.14501953 C-6.30440292 55.90718719 -6.28776093 54.66935486 -6.27061462 53.39401245 C-6.26205463 52.04294879 -6.25355696 50.69188473 -6.24511719 49.34082031 C-6.22894372 47.95743636 -6.21176388 46.57406384 -6.19361877 45.19070435 C-6.14794273 41.55138416 -6.11312738 37.91204882 -6.0814209 34.27258301 C-6.02952686 28.43975629 -5.96454745 22.60709691 -5.89320564 16.77447891 C-5.87031122 14.73312119 -5.85408225 12.691785 -5.83848572 10.65036011 C-5.82499588 9.41883209 -5.81150604 8.18730408 -5.79760742 6.91845703 C-5.78809555 5.82830292 -5.77858368 4.7381488 -5.76878357 3.61495972 C-5.51892697 -0.62035585 -3.79414304 0.02974525 0 0 Z " fill="#FAFBFB" transform="translate(319.6240234375,180.8388671875)"/>
<path d="M0 0 C3.63 0 7.26 0 11 0 C11.88948884 4.4474442 12.12992534 8.43735544 12.09765625 12.92578125 C12.0962413 13.67337204 12.09482635 14.42096283 12.09336853 15.19120789 C12.08779764 17.56501365 12.0752506 19.93872303 12.0625 22.3125 C12.05748123 23.92773301 12.05291899 25.5429675 12.04882812 27.15820312 C12.03783775 31.10550555 12.02059332 35.05273647 12 39 C12.99 38.505 12.99 38.505 14 38 C14.125 40.375 14.125 40.375 14 43 C12 45 12 45 9.1796875 45.1953125 C8.08914063 45.17210937 6.99859375 45.14890625 5.875 45.125 C4.77929688 45.10695312 3.68359375 45.08890625 2.5546875 45.0703125 C1.71164062 45.04710937 0.86859375 45.02390625 0 45 C-1.25970956 40.22837287 -1.03442468 35.64639936 -0.87890625 30.76171875 C-0.84348976 29.44056816 -0.84348976 29.44056816 -0.80735779 28.09272766 C-0.73103294 25.29080831 -0.64687514 22.48918734 -0.5625 19.6875 C-0.50924807 17.78321753 -0.4565079 15.87892067 -0.40429688 13.97460938 C-0.27546017 9.31621875 -0.13959995 4.65808 0 0 Z " fill="#2C302F" transform="translate(337,201)"/>
<path d="M0 0 C2.97 0.33 5.94 0.66 9 1 C9 10.57 9 20.14 9 30 C9.66 30 10.32 30 11 30 C11 30.66 11 31.32 11 32 C10.34 32 9.68 32 9 32 C9 35.63 9 39.26 9 43 C9.66 43.33 10.32 43.66 11 44 C10.34 44.99 9.68 45.98 9 47 C7.35369672 46.85957123 5.70795821 46.71250671 4.0625 46.5625 C3.14597656 46.48128906 2.22945313 46.40007812 1.28515625 46.31640625 C-1 46 -1 46 -2 45 C-2.06872583 43.62275047 -2.0677289 42.24191522 -2.03759766 40.86328125 C-2.02072906 39.98567139 -2.00386047 39.10806152 -1.98648071 38.20385742 C-1.9625827 37.24970947 -1.93868469 36.29556152 -1.9140625 35.3125 C-1.89282318 34.33966064 -1.87158386 33.36682129 -1.84970093 32.36450195 C-1.80335018 30.30316474 -1.75441508 28.24188429 -1.703125 26.18066406 C-1.62533881 23.01379382 -1.55819001 19.84682276 -1.4921875 16.6796875 C-1.44595262 14.68227675 -1.39909849 12.68488021 -1.3515625 10.6875 C-1.33171295 9.73335205 -1.3118634 8.7792041 -1.29141235 7.79614258 C-1.26823944 6.91853271 -1.24506653 6.04092285 -1.22119141 5.13671875 C-1.20263092 4.36030029 -1.18407043 3.58388184 -1.16494751 2.78393555 C-1 1 -1 1 0 0 Z " fill="#252928" transform="translate(485,259)"/>
<path d="M0 0 C1.45823212 -0.0270043 2.91660675 -0.04639787 4.375 -0.0625 C5.18710937 -0.07410156 5.99921875 -0.08570313 6.8359375 -0.09765625 C9 0 9 0 11 1 C11 3.31 11 5.62 11 8 C11.66 8.33 12.32 8.66 13 9 C12.67 9.33 12.34 9.66 12 10 C11.8415735 12.0708472 11.74875578 14.14678029 11.68359375 16.22265625 C11.64169922 17.48271484 11.59980469 18.74277344 11.55664062 20.04101562 C11.51682404 21.38150736 11.47711186 22.7220022 11.4375 24.0625 C11.39431958 25.40691523 11.35070544 26.7513166 11.30664062 28.09570312 C11.20014642 31.3970234 11.0981354 34.69842236 11 38 C3.57142857 39.28571429 3.57142857 39.28571429 0 38 C-0.06058594 37.18015625 -0.12117188 36.3603125 -0.18359375 35.515625 C-0.26738281 34.43796875 -0.35117187 33.3603125 -0.4375 32.25 C-0.51871094 31.18265625 -0.59992188 30.1153125 -0.68359375 29.015625 C-0.89282825 26.16371191 -0.89282825 26.16371191 -1.54101562 24.13671875 C-2.0960111 21.55303767 -1.91993869 19.42526207 -1.66015625 16.796875 C-1.5199707 15.32734375 -1.5199707 15.32734375 -1.37695312 13.828125 C-1.27318359 12.81234375 -1.16941406 11.7965625 -1.0625 10.75 C-0.96259766 9.71875 -0.86269531 8.6875 -0.75976562 7.625 C-0.5125948 5.08267151 -0.25912455 2.5411333 0 0 Z " fill="#292E2D" transform="translate(484,200)"/>
<path d="M0 0 C-0.33 0.99 -0.66 1.98 -1 3 C22.76 3 46.52 3 71 3 C71 3.33 71 3.66 71 4 C39.98 4 8.96 4 -23 4 C-23 3.67 -23 3.34 -23 3 C-18.71 3 -14.42 3 -10 3 C-10 2.34 -10 1.68 -10 1 C-6.52674819 -0.1577506 -3.63932552 -0.06866652 0 0 Z " fill="#949796" transform="translate(514,156)"/>
<path d="M0 0 C0.66 0.33 1.32 0.66 2 1 C2 1.66 2 2.32 2 3 C4.97 3.495 4.97 3.495 8 4 C8 4.66 8 5.32 8 6 C8.928125 6 9.85625 6 10.8125 6 C14.94963994 6 19.06481946 6.0634674 23.19921875 6.21875 C25.01196289 6.28642578 25.01196289 6.28642578 26.86132812 6.35546875 C28.7552832 6.42701172 28.7552832 6.42701172 30.6875 6.5 C31.96173828 6.54769531 33.23597656 6.59539062 34.54882812 6.64453125 C37.69923772 6.76252412 40.84962701 6.88103442 44 7 C44 7.33 44 7.66 44 8 C24.86 8 5.72 8 -14 8 C-14 7.67 -14 7.34 -14 7 C-10.7 6.67 -7.4 6.34 -4 6 C-4 4.68 -4 3.36 -4 2 C-2.125 0.9375 -2.125 0.9375 0 0 Z " fill="#A6AAAB" transform="translate(529,362)"/>
<path d="M0 0 C8.91 0 17.82 0 27 0 C27.33 0.66 27.66 1.32 28 2 C28 1.34 28 0.68 28 0 C32.29 0 36.58 0 41 0 C41 0.33 41 0.66 41 1 C36.545 1.495 36.545 1.495 32 2 C32 2.66 32 3.32 32 4 C28.70450534 5.72264494 25.66881155 7.29445932 22 8 C22 6.68 22 5.36 22 4 C19.03 3.505 19.03 3.505 16 3 C16 2.34 16 1.68 16 1 C15.34 1 14.68 1 14 1 C14 1.66 14 2.32 14 3 C13.34 3 12.68 3 12 3 C12 2.34 12 1.68 12 1 C11.505 1.185625 11.01 1.37125 10.5 1.5625 C6.84918311 2.20139296 3.66035276 1.54905291 0 1 C0 0.67 0 0.34 0 0 Z " fill="#BDC1BF" transform="translate(364,136)"/>
<path d="M0 0 C17.82 0 35.64 0 54 0 C54 0.33 54 0.66 54 1 C49.71 1 45.42 1 41 1 C41 1.99 41 2.98 41 4 C38.03 3.67 35.06 3.34 32 3 C32 2.34 32 1.68 32 1 C21.44 1 10.88 1 0 1 C0 0.67 0 0.34 0 0 Z " fill="#A2A6A5" transform="translate(343,346)"/>
<path d="M0 0 C0.33 0 0.66 0 1 0 C1.72526532 7.84402334 2.21074074 15.19744856 1 23 C1.66 23 2.32 23 3 23 C3.07310693 25.55874244 3.03472859 27.83820248 2.49609375 30.34765625 C1.98704191 33.06927985 1.93534795 35.48612492 2 38.25 C2.05436862 43.2587095 1.65101747 48.03599177 1 53 C0.34 52.67 -0.32 52.34 -1 52 C-0.67 34.84 -0.34 17.68 0 0 Z " fill="#A5A8A8" transform="translate(314,192)"/>
<path d="M0 0 C0.33 0 0.66 0 1 0 C1 7.59 1 15.18 1 23 C-0.32 23 -1.64 23 -3 23 C-3.09688221 17.55306686 -3.12862175 12.36095333 -2 7 C-1.67 7 -1.34 7 -1 7 C-0.67 4.69 -0.34 2.38 0 0 Z " fill="#CBCCCD" transform="translate(288,293)"/>
<path d="M0 0 C3.875 0.875 3.875 0.875 5 2 C5.07244053 4.01964199 5.08377188 6.04167124 5.0625 8.0625 C5.05347656 9.16722656 5.04445313 10.27195313 5.03515625 11.41015625 C5.02355469 12.26480469 5.01195312 13.11945313 5 14 C3.68 13.34 2.36 12.68 1 12 C1 9.69 1 7.38 1 5 C0.34 4.67 -0.32 4.34 -1 4 C-0.67 2.68 -0.34 1.36 0 0 Z " fill="#CED0D2" transform="translate(582,183)"/>
<path d="M0 0 C4.29 0 8.58 0 13 0 C13 0.33 13 0.66 13 1 C8.545 1.495 8.545 1.495 4 2 C4 2.66 4 3.32 4 4 C0.70450534 5.72264494 -2.33118845 7.29445932 -6 8 C-6 6.35 -6 4.7 -6 3 C-5.34 3 -4.68 3 -4 3 C-4 2.34 -4 1.68 -4 1 C-2.68 1.33 -1.36 1.66 0 2 C0 1.34 0 0.68 0 0 Z " fill="#D6DAD8" transform="translate(392,136)"/>
<path d="M0 0 C1.9765625 1.1953125 1.9765625 1.1953125 4 3 C5.01301183 8.06505914 4.43936482 13.42619096 2 18 C-0.57466212 14.21373218 0.2615761 11.34849632 1 7 C0.67 6.67 0.34 6.34 0 6 C-0.04080783 4.00041636 -0.04254356 1.99954746 0 0 Z " fill="#D6DAD9" transform="translate(584,302)"/>
<path d="M0 0 C0.66 0.33 1.32 0.66 2 1 C2 1.66 2 2.32 2 3 C4.97 3.495 4.97 3.495 8 4 C8 4.66 8 5.32 8 6 C4.47940432 7.17353189 1.693507 7.20146402 -2 7 C-2.66 6.34 -3.32 5.68 -4 5 C-4 4.01 -4 3.02 -4 2 C-2.125 0.9375 -2.125 0.9375 0 0 Z " fill="#CFD1D1" transform="translate(529,362)"/>
<path d="M0 0 C0.33 0 0.66 0 1 0 C1 3.96 1 7.92 1 12 C1.66 12.33 2.32 12.66 3 13 C2.34 13 1.68 13 1 13 C1 13.99 1 14.98 1 16 C1.99 16.33 2.98 16.66 4 17 C3.67 17.66 3.34 18.32 3 19 C2.34 19 1.68 19 1 19 C1 23.29 1 27.58 1 32 C0.67 32 0.34 32 0 32 C-0.16726689 27.60364953 -0.32786093 23.20712239 -0.48217773 18.81030273 C-0.53566434 17.31349062 -0.5909987 15.81674337 -0.64819336 14.32006836 C-0.72991956 12.17315668 -0.8050746 10.02610207 -0.87890625 7.87890625 C-0.9260376 6.5854126 -0.97316895 5.29191895 -1.02172852 3.95922852 C-1 1 -1 1 0 0 Z " fill="#CBCFD0" transform="translate(462,258)"/>
<path d="M0 0 C0.99 1.32 1.98 2.64 3 4 C0.53846154 8.8 0.53846154 8.8 -2.1875 9.8125 C-2.785625 9.874375 -3.38375 9.93625 -4 10 C-4.33 11.32 -4.66 12.64 -5 14 C-5.46733615 9.42010577 -5.17261016 6.75145487 -2.5 3.0625 C-1.675 2.051875 -0.85 1.04125 0 0 Z " fill="#CBCFCE" transform="translate(536,182)"/>
<path d="M0 0 C-0.33 2.64 -0.66 5.28 -1 8 C-1.66 8 -2.32 8 -3 8 C-3.33 7.34 -3.66 6.68 -4 6 C-4.66 6 -5.32 6 -6 6 C-6 7.98 -6 9.96 -6 12 C-6.33 12 -6.66 12 -7 12 C-7 8.37 -7 4.74 -7 1 C-4 0 -4 0 0 0 Z " fill="#ACAFAE" transform="translate(501,290)"/>
<path d="M0 0 C0.185625 0.9590625 0.185625 0.9590625 0.375 1.9375 C0.684375 2.9584375 0.684375 2.9584375 1 4 C1.66 4.33 2.32 4.66 3 5 C2.67 5.33 2.34 5.66 2 6 C1.84193469 7.92478813 1.748865 9.8549921 1.68359375 11.78515625 C1.64169922 12.95498047 1.59980469 14.12480469 1.55664062 15.33007812 C1.49766602 17.17762695 1.49766602 17.17762695 1.4375 19.0625 C1.39431641 20.29806641 1.35113281 21.53363281 1.30664062 22.80664062 C1.20015802 25.87097335 1.09814576 28.93539073 1 32 C0.67 32 0.34 32 0 32 C-0.19789024 28.77138267 -0.38146345 25.54210273 -0.5625 22.3125 C-0.61857422 21.40048828 -0.67464844 20.48847656 -0.73242188 19.54882812 C-0.78076172 18.66259766 -0.82910156 17.77636719 -0.87890625 16.86328125 C-0.9260376 16.05157471 -0.97316895 15.23986816 -1.02172852 14.40356445 C-0.99838228 11.8210515 -0.5804792 9.51150091 0 7 C-0.66 6.67 -1.32 6.34 -2 6 C-1.34 4.02 -0.68 2.04 0 0 Z " fill="#646867" transform="translate(494,204)"/>
<path d="M0 0 C0.12375 0.598125 0.2475 1.19625 0.375 1.8125 C0.95475985 4.26231348 0.95475985 4.26231348 3 7 C3.25760279 9.69452521 3.08900053 12.28548375 3 15 C2.01 15.33 1.02 15.66 0 16 C0.875 12.125 0.875 12.125 2 11 C1.01 11 0.02 11 -1 11 C-1.0270043 9.54176788 -1.04639787 8.08339325 -1.0625 6.625 C-1.07410156 5.81289063 -1.08570313 5.00078125 -1.09765625 4.1640625 C-1 2 -1 2 0 0 Z " fill="#CBCFD0" transform="translate(315,267)"/>
<path d="M0 0 C0.33 0 0.66 0 1 0 C1 10.23 1 20.46 1 31 C0.67 31 0.34 31 0 31 C-0.06058594 30.16855469 -0.12117188 29.33710938 -0.18359375 28.48046875 C-0.26738281 27.39378906 -0.35117187 26.30710937 -0.4375 25.1875 C-0.51871094 24.10855469 -0.59992188 23.02960938 -0.68359375 21.91796875 C-0.90212461 18.94010095 -0.90212461 18.94010095 -2 16 C-1.67 15.67 -1.34 15.34 -1 15 C-0.76346477 12.47403741 -0.57826308 9.96892793 -0.4375 7.4375 C-0.39431641 6.72658203 -0.35113281 6.01566406 -0.30664062 5.28320312 C-0.20028223 3.52238088 -0.09961154 1.7612168 0 0 Z " fill="#CACDCE" transform="translate(288,261)"/>
<path d="M0 0 C0.33 0 0.66 0 1 0 C3.46254726 6.61809577 3.18935472 13.00439516 3 20 C2.01 19.67 1.02 19.34 0 19 C0 12.73 0 6.46 0 0 Z " fill="#404241" transform="translate(346,213)"/>
<path d="M0 0 C0 0.66 0 1.32 0 2 C0.66 2.33 1.32 2.66 2 3 C-0.34852528 4.17426264 -1.73774065 4.11508173 -4.3515625 4.09765625 C-5.20234375 4.09443359 -6.053125 4.09121094 -6.9296875 4.08789062 C-7.81914062 4.07951172 -8.70859375 4.07113281 -9.625 4.0625 C-10.5221875 4.05798828 -11.419375 4.05347656 -12.34375 4.04882812 C-14.56256648 4.03702591 -16.78125018 4.02056155 -19 4 C-19 3.67 -19 3.34 -19 3 C-14.71 3 -10.42 3 -6 3 C-6 2.34 -6 1.68 -6 1 C-3 0 -3 0 0 0 Z " fill="#C0C3C2" transform="translate(510,156)"/>
<path d="M0 0 C0.66 0 1.32 0 2 0 C2 0.66 2 1.32 2 2 C2.66 2.33 3.32 2.66 4 3 C4 5.66666667 4 8.33333333 4 11 C3.71125 10.360625 3.4225 9.72125 3.125 9.0625 C2.17176549 6.84793921 2.17176549 6.84793921 0 6 C0 7.65 0 9.3 0 11 C-0.33 11 -0.66 11 -1 11 C-1.0270043 9.54176788 -1.04639787 8.08339325 -1.0625 6.625 C-1.07410156 5.81289063 -1.08570313 5.00078125 -1.09765625 4.1640625 C-1 2 -1 2 0 0 Z " fill="#DFE3E2" transform="translate(568,288)"/>
<path d="M0 0 C1.32 1.65 2.64 3.3 4 5 C3.01 5.495 3.01 5.495 2 6 C1.31527335 7.88764903 1.31527335 7.88764903 0.875 10.0625 C0.70742188 10.79597656 0.53984375 11.52945313 0.3671875 12.28515625 C0.24601562 12.85105469 0.12484375 13.41695312 0 14 C-0.33 14 -0.66 14 -1 14 C-1.22226864 12.23086176 -1.42733873 10.45955629 -1.625 8.6875 C-1.74101562 7.70136719 -1.85703125 6.71523437 -1.9765625 5.69921875 C-2 3 -2 3 0 0 Z " fill="#ADAFAD" transform="translate(389,199)"/>
<path d="M0 0 C0.33 0 0.66 0 1 0 C1.33 5.61 1.66 11.22 2 17 C0.68 17.33 -0.64 17.66 -2 18 C-2.66 17.34 -3.32 16.68 -4 16 C-3.01 15.67 -2.02 15.34 -1 15 C-0.67 10.05 -0.34 5.1 0 0 Z " fill="#1D201F" transform="translate(493,221)"/>
<path d="M0 0 C0.99 0 1.98 0 3 0 C3 0.66 3 1.32 3 2 C2.34 2 1.68 2 1 2 C1 2.66 1 3.32 1 4 C0.34 4 -0.32 4 -1 4 C-1 4.66 -1 5.32 -1 6 C-3.97 6 -6.94 6 -10 6 C-10 5.34 -10 4.68 -10 4 C-6.7 3.67 -3.4 3.34 0 3 C0 2.01 0 1.02 0 0 Z " fill="#B0B2B2" transform="translate(349,243)"/>
<path d="M0 0 C0.33 0 0.66 0 1 0 C1.66 2.97 2.32 5.94 3 9 C2.34 9 1.68 9 1 9 C1 11.31 1 13.62 1 16 C0.01 16.33 -0.98 16.66 -2 17 C-2 16.34 -2 15.68 -2 15 C-1.34 15 -0.68 15 0 15 C0 10.05 0 5.1 0 0 Z " fill="#434745" transform="translate(652,308)"/>
<path d="M0 0 C0.66 0 1.32 0 2 0 C3.33257403 9.41002278 3.33257403 9.41002278 2 14 C0 12 0 12 -0.1953125 9.1796875 C-0.17210937 8.08914062 -0.14890625 6.99859375 -0.125 5.875 C-0.10695313 4.77929688 -0.08890625 3.68359375 -0.0703125 2.5546875 C-0.04710937 1.71164063 -0.02390625 0.86859375 0 0 Z " fill="#D7DBDC" transform="translate(425,221)"/>
<path d="M0 0 C0.33 0 0.66 0 1 0 C2.40607715 4.87991481 3.30876009 8.02671166 2 13 C1.96227087 14.9996441 1.95350094 17.00054061 2 19 C-0.44989101 15.25764681 -0.23086143 11.55774581 -0.125 7.25 C-0.11597656 6.55261719 -0.10695313 5.85523438 -0.09765625 5.13671875 C-0.07419888 3.42433042 -0.03833104 1.71211996 0 0 Z " fill="#646766" transform="translate(633,202)"/>
<path d="M0 0 C0.33 0 0.66 0 1 0 C1 1.98 1 3.96 1 6 C1.66 6 2.32 6 3 6 C2.67 8.64 2.34 11.28 2 14 C-0.28062828 10.57905758 -0.21925007 9.31812778 -0.125 5.3125 C-0.10695313 4.31863281 -0.08890625 3.32476562 -0.0703125 2.30078125 C-0.04710937 1.54152344 -0.02390625 0.78226563 0 0 Z " fill="#B4B8B8" transform="translate(462,223)"/>
<path d="M0 0 C0.66 0.66 1.32 1.32 2 2 C5.12196336 2.46486718 5.12196336 2.46486718 8.625 2.625 C9.81351563 2.69976562 11.00203125 2.77453125 12.2265625 2.8515625 C13.14179687 2.90054688 14.05703125 2.94953125 15 3 C15 3.33 15 3.66 15 4 C9.72 4 4.44 4 -1 4 C-1.33 3.01 -1.66 2.02 -2 1 C-1.34 0.67 -0.68 0.34 0 0 Z " fill="#D6DBD9" transform="translate(570,212)"/>
<path d="M0 0 C4.54195365 -0.37849614 5.0144396 0.0108297 9 3 C5.04 3 1.08 3 -3 3 C-2.01 2.67 -1.02 2.34 0 2 C0 1.34 0 0.68 0 0 Z " fill="#888C8D" transform="translate(601,368)"/>
<path d="M0 0 C1.98 0.99 1.98 0.99 4 2 C4 4.31 4 6.62 4 9 C2 7.75 2 7.75 0 6 C0 4 0 2 0 0 Z " fill="#BDBFBE" transform="translate(332,237)"/>
<path d="M0 0 C1.62463842 -0.05395478 3.24978541 -0.09277195 4.875 -0.125 C5.77992188 -0.14820313 6.68484375 -0.17140625 7.6171875 -0.1953125 C10 0 10 0 12 2 C11.67 2.66 11.34 3.32 11 4 C9.35 3.67 7.7 3.34 6 3 C6 2.34 6 1.68 6 1 C4.02 1 2.04 1 0 1 C0 0.67 0 0.34 0 0 Z " fill="#A7ADAB" transform="translate(355,181)"/>
<path d="M0 0 C0.33 0 0.66 0 1 0 C1.12375 0.9075 1.2475 1.815 1.375 2.75 C1.92109677 5.58970323 2.57263803 7.52590591 4 10 C2.02 10.99 2.02 10.99 0 12 C-1.31157516 9.37684968 -0.89649988 7.76966564 -0.5625 4.875 C-0.46066406 3.96492187 -0.35882813 3.05484375 -0.25390625 2.1171875 C-0.17011719 1.41851562 -0.08632813 0.71984375 0 0 Z " fill="#1F2422" transform="translate(289,162)"/>
<path d="M0 0 C0.99 0.33 1.98 0.66 3 1 C2.44855089 5.08072342 2.08669204 5.91330796 -1 9 C-0.67 6.03 -0.34 3.06 0 0 Z " fill="#787D7C" transform="translate(568,294)"/>
<path d="M0 0 C0.33 0.66 0.66 1.32 1 2 C2.98 2 4.96 2 7 2 C6.360625 2.12375 5.72125 2.2475 5.0625 2.375 C4.381875 2.58125 3.70125 2.7875 3 3 C2.67 3.66 2.34 4.32 2 5 C0.35 4.67 -1.3 4.34 -3 4 C-2.67 3.01 -2.34 2.02 -2 1 C-1.34 0.67 -0.68 0.34 0 0 Z " fill="#DDDFDE" transform="translate(336,244)"/>
<path d="M0 0 C0.99 0.495 0.99 0.495 2 1 C2.8125 4.375 2.8125 4.375 3 8 C2.01 8.99 1.02 9.98 0 11 C0 7.37 0 3.74 0 0 Z " fill="#E7EAEA" transform="translate(425,206)"/>
<path d="M0 0 C3.96 0.33 7.92 0.66 12 1 C8 4 8 4 5.25 3.6875 C4.5075 3.460625 3.765 3.23375 3 3 C3 2.34 3 1.68 3 1 C2.01 0.67 1.02 0.34 0 0 Z " fill="#C7C9CA" transform="translate(571,180)"/>
<path d="M0 0 C2.97 0 5.94 0 9 0 C9 0.99 9 1.98 9 3 C6.03 2.67 3.06 2.34 0 2 C0 1.34 0 0.68 0 0 Z " fill="#CED2CF" transform="translate(375,347)"/>
<path d="M0 0 C2 1.1875 2 1.1875 4 3 C4.25 5.6875 4.25 5.6875 4 8 C2.68 7.34 1.36 6.68 0 6 C0 4.02 0 2.04 0 0 Z " fill="#CECECE" transform="translate(584,302)"/>
<path d="M0 0 C0.33 0 0.66 0 1 0 C1 4.29 1 8.58 1 13 C-0.32 12.67 -1.64 12.34 -3 12 C-2.34 11.01 -1.68 10.02 -1 9 C-0.54605448 6.72087062 -0.54605448 6.72087062 -0.375 4.3125 C-0.30023437 3.50425781 -0.22546875 2.69601563 -0.1484375 1.86328125 C-0.09945312 1.24839844 -0.05046875 0.63351563 0 0 Z " fill="#585D5C" transform="translate(531,250)"/>
<path d="M0 0 C3.3 0 6.6 0 10 0 C10 0.33 10 0.66 10 1 C8.35 1 6.7 1 5 1 C4.67 1.66 4.34 2.32 4 3 C3.34 3 2.68 3 2 3 C1.34 3.66 0.68 4.32 0 5 C0 3.35 0 1.7 0 0 Z " fill="#4A4F4D" transform="translate(553,200)"/>
<path d="M0 0 C3.63 0 7.26 0 11 0 C11 0.33 11 0.66 11 1 C9.7625 1.12375 8.525 1.2475 7.25 1.375 C4.1237803 1.75746305 1.71120763 2.30549523 -1 4 C-0.67 2.68 -0.34 1.36 0 0 Z " fill="#525556" transform="translate(403,324)"/>
<path d="M0 0 C1.32 0 2.64 0 4 0 C3.67 1.65 3.34 3.3 3 5 C1.68 5 0.36 5 -1 5 C-0.67 3.35 -0.34 1.7 0 0 Z " fill="#9FA1A0" transform="translate(563,304)"/>
<path d="M0 0 C2 2 2 2 2 6 C1.34 6 0.68 6 0 6 C-0.33 6.66 -0.66 7.32 -1 8 C-1.04241723 5.66705225 -1.04092937 3.33297433 -1 1 C-0.67 0.67 -0.34 0.34 0 0 Z " fill="#A7ABAC" transform="translate(463,316)"/>
<path d="M0 0 C0.99 0.33 1.98 0.66 3 1 C3.75 2.9375 3.75 2.9375 4 5 C3.67 5.66 3.34 6.32 3 7 C2.34 7 1.68 7 1 7 C0.67 4.69 0.34 2.38 0 0 Z " fill="#C9CACA" transform="translate(285,182)"/>
<path d="M0 0 C0 0.66 0 1.32 0 2 C0.66 2.33 1.32 2.66 2 3 C-0.64 3 -3.28 3 -6 3 C-6 2.34 -6 1.68 -6 1 C-3 0 -3 0 0 0 Z " fill="#D2D3D3" transform="translate(510,156)"/>
<path d="M0 0 C4.29 0 8.58 0 13 0 C13 0.33 13 0.66 13 1 C11.39602723 1.16852247 9.7918131 1.33474886 8.1875 1.5 C7.29417969 1.5928125 6.40085937 1.685625 5.48046875 1.78125 C3 2 3 2 0 2 C0 1.34 0 0.68 0 0 Z " fill="#CBCECD" transform="translate(428,136)"/>
</svg>
